<?xml version="1.0" standalone="no"?>
<!DOCTYPE svg PUBLIC "-//W3C//DTD SVG 20010904//EN"
 "http://www.w3.org/TR/2001/REC-SVG-20010904/DTD/svg10.dtd">
<svg version="1.0" xmlns="http://www.w3.org/2000/svg"
 width="1020.000000pt" height="566.000000pt" viewBox="0 0 1020.000000 566.000000"
 preserveAspectRatio="xMidYMid meet">

<g transform="translate(0.000000,566.000000) scale(0.100000,-0.100000)"
fill="#ffffff" stroke="none">
<path d="M4132 4825 c-104 -45 -171 -150 -192 -301 -15 -106 -8 -311 14 -435
25 -133 82 -331 119 -411 l34 -73 5 180 c4 105 13 213 23 260 47 227 142 411
310 601 l50 56 -57 53 c-34 32 -75 59 -104 69 -59 20 -158 20 -202 1z"/>
<path d="M4724 4792 c-123 -44 -251 -147 -346 -279 -175 -242 -234 -459 -226
-820 2 -106 8 -196 11 -200 4 -4 54 17 110 45 133 69 205 88 419 112 216 25
255 32 338 62 288 105 429 404 324 687 -58 156 -190 309 -321 372 -59 29 -80
33 -163 36 -73 3 -107 -1 -146 -15z"/>
<path d="M3927 3823 c-19 -18 -5 -65 32 -107 29 -33 42 -60 50 -98 5 -29 17
-89 25 -133 20 -101 66 -193 135 -268 91 -98 124 -103 68 -10 -53 87 -150 313
-191 445 -43 138 -88 203 -119 171z"/>
<path d="M4554 3601 c-131 -21 -366 -127 -372 -168 -8 -56 100 -251 189 -341
146 -148 349 -226 522 -202 90 13 149 41 208 100 105 105 117 317 26 453 -40
59 -114 112 -198 139 -71 23 -280 33 -375 19z"/>
<path d="M8226 3227 c-17 -13 -18 -22 -6 -158 11 -134 25 -189 48 -189 5 0 17
6 27 14 18 13 18 20 6 162 -9 108 -17 154 -28 166 -19 21 -24 22 -47 5z"/>
<path d="M8533 3222 c-6 -4 -43 -61 -81 -127 -38 -66 -75 -130 -82 -141 -32
-51 27 -74 71 -28 21 23 29 25 74 19 76 -10 84 -14 100 -51 14 -34 36 -43 64
-25 12 8 10 34 -17 172 -18 89 -37 168 -43 176 -12 14 -66 18 -86 5z m52 -171
l7 -54 -42 6 c-23 3 -44 7 -46 10 -6 6 26 79 44 100 20 23 27 11 37 -62z"/>
<path d="M7940 3176 c-73 -20 -110 -44 -110 -69 0 -26 78 -266 93 -285 6 -7
22 -12 36 -10 27 3 30 19 20 103 -6 43 22 43 69 1 55 -50 85 -60 108 -35 17
19 17 21 -24 58 -23 21 -42 42 -42 45 0 4 7 23 15 43 19 45 19 67 0 108 -26
54 -75 66 -165 41z m94 -72 c14 -36 6 -64 -24 -79 -16 -8 -36 -15 -44 -15 -16
0 -46 48 -46 75 0 32 102 49 114 19z"/>
<path d="M8867 3143 c-14 -14 -6 -42 18 -61 14 -11 25 -25 25 -31 0 -6 -25
-62 -56 -123 -59 -118 -62 -143 -14 -143 20 0 34 19 85 115 49 92 66 114 81
112 76 -14 81 -13 87 2 7 17 -15 35 -113 88 -74 40 -103 51 -113 41z"/>
<path d="M7575 2981 c-59 -36 -105 -108 -105 -164 0 -70 83 -166 157 -182 87
-18 199 59 217 150 8 41 -5 59 -38 51 -19 -5 -28 -16 -36 -46 -30 -111 -177
-104 -211 11 -20 66 13 106 108 129 41 10 62 37 48 60 -11 17 -107 12 -140 -9z"/>
<path d="M9085 2833 c-53 -64 -99 -122 -102 -130 -9 -22 26 -54 47 -43 17 9
126 135 185 214 l29 38 -23 19 c-13 11 -27 19 -31 19 -5 0 -52 -52 -105 -117z"/>
<path d="M9236 2694 c-48 -69 -91 -136 -95 -147 -10 -27 0 -56 27 -80 18 -17
24 -17 83 -3 86 20 223 62 248 76 12 6 21 20 21 31 0 39 -28 37 -208 -14 -40
-11 -75 -18 -78 -14 -3 3 28 56 70 117 42 61 76 115 76 120 0 13 -30 40 -44
40 -8 0 -52 -57 -100 -126z"/>
<path d="M1021 2749 c-102 -12 -213 -44 -286 -82 -125 -65 -235 -213 -264
-355 -17 -80 -15 -1396 2 -1409 13 -11 527 -28 832 -27 243 1 361 25 531 108
133 66 206 131 255 231 29 59 33 77 33 149 1 72 -3 89 -31 147 -70 142 -182
214 -441 284 -57 15 -100 31 -95 35 4 5 44 22 88 39 248 99 367 259 335 453
-37 232 -288 380 -722 427 -108 12 -131 12 -237 0z m-51 -165 c127 -28 273
-139 360 -272 52 -79 90 -179 90 -236 0 -119 -79 -196 -240 -235 -90 -22 -89
-39 5 -76 152 -60 257 -162 340 -330 89 -179 99 -339 28 -433 -33 -43 -111
-82 -166 -82 -101 0 -222 66 -304 167 l-37 45 2 356 c3 423 -5 530 -44 602
-36 65 -101 126 -194 179 -127 74 -170 127 -170 209 0 45 30 84 82 107 44 19
163 19 248 -1z"/>
<path d="M8292 2697 c-6 -7 -12 -93 -14 -212 -2 -110 -7 -206 -11 -212 -6 -10
-26 -3 -80 26 -135 74 -231 87 -371 51 -199 -51 -415 -223 -515 -409 -102
-192 -99 -460 9 -681 l41 -85 -27 -24 c-23 -19 -36 -22 -75 -19 -63 6 -110 43
-144 113 -27 55 -27 57 -21 203 18 400 18 425 6 485 -26 137 -117 265 -239
337 -36 21 -109 53 -161 71 -178 60 -342 39 -525 -67 -195 -114 -301 -148
-400 -130 -51 10 -104 64 -129 134 -21 61 -29 68 -50 46 -14 -14 -16 -77 -17
-552 0 -295 -4 -557 -7 -582 -9 -57 -28 -62 -77 -19 -47 42 -62 72 -76 158
-10 58 -9 94 6 213 21 163 22 305 5 381 -7 28 -29 88 -50 133 -72 149 -200
245 -395 294 -77 19 -107 22 -215 17 -141 -6 -219 -28 -444 -127 -137 -60
-218 -74 -261 -46 -14 9 -38 43 -53 74 -33 69 -61 77 -75 22 -13 -52 -2 -266
17 -327 23 -71 72 -133 128 -161 37 -19 64 -24 135 -25 77 -1 94 2 132 23 62
35 113 114 146 225 72 246 95 280 190 286 56 4 73 -1 104 -27 51 -42 71 -128
71 -299 0 -120 -11 -239 -23 -252 -2 -2 -116 -5 -253 -7 -288 -5 -373 -20
-508 -85 -174 -84 -257 -232 -227 -402 29 -166 140 -268 358 -331 69 -20 101
-23 273 -23 132 0 209 4 238 13 48 15 115 70 138 114 l15 29 55 -50 c29 -27
80 -62 111 -77 115 -57 300 -41 455 37 68 34 64 35 100 -30 l17 -31 259 0
c234 0 260 2 275 18 13 15 16 89 19 612 3 540 5 599 21 635 34 75 81 107 162
109 65 0 107 -24 139 -84 53 -97 57 -265 16 -588 -46 -359 -11 -516 143 -639
69 -54 151 -76 265 -71 141 7 255 52 403 158 46 33 90 60 98 60 7 0 51 -27 97
-60 150 -107 276 -155 432 -166 176 -12 299 23 471 134 82 53 159 82 222 82
90 0 137 -33 181 -125 13 -27 30 -50 38 -50 22 0 33 507 23 1047 l-8 427 -33
34 c-36 37 -117 66 -242 87 -145 24 -199 59 -239 153 -21 49 -31 56 -49 34z
m-196 -451 c68 -31 126 -83 157 -141 22 -39 22 -46 22 -540 0 -488 0 -501 -21
-540 -27 -51 -73 -79 -117 -71 -17 3 -57 26 -88 50 -126 99 -250 354 -310 636
-27 126 -33 405 -11 478 16 53 69 113 125 142 58 30 160 24 243 -14z m-3298
-577 c22 -9 23 -13 18 -62 -3 -28 -8 -160 -12 -292 -3 -132 -10 -256 -16 -275
-13 -44 -53 -87 -88 -95 -98 -22 -245 148 -309 359 -30 99 -30 230 2 277 28
42 107 86 178 98 58 10 189 4 227 -10z"/>
<path d="M9405 2384 c-111 -57 -145 -181 -78 -278 35 -51 84 -76 146 -76 62 0
105 19 144 63 77 88 48 233 -57 287 -47 24 -114 26 -155 4z m151 -100 c75 -79
26 -174 -89 -174 -34 0 -50 6 -70 26 -52 52 -43 118 22 161 52 35 96 31 137
-13z"/>
<path d="M2952 2345 c-34 -13 -83 -39 -108 -57 -195 -140 -314 -177 -420 -129
-50 23 -78 57 -99 122 -17 50 -46 67 -59 33 -3 -9 -6 -327 -6 -708 0 -525 3
-695 12 -704 15 -15 525 -17 548 -2 13 8 16 94 21 637 3 345 9 637 14 648 28
70 100 87 148 37 16 -17 42 -69 61 -123 54 -149 72 -185 118 -235 79 -86 174
-112 293 -79 158 42 240 200 233 445 -4 113 -18 123 -60 45 -37 -68 -70 -95
-117 -95 -40 0 -44 2 -193 112 -110 81 -260 101 -386 53z"/>
</g>
</svg>
